# xmcd
#
# Track frame offsets:
#	150
#	36850
#	54812
#	74575
#	92275
#	114850
#	138625
#	159400
#	192887
#	215912
#	237025
#	247525
#	265187
#	280787
#
# Disc length: 4058 seconds
#
# Revision: 0
# Processed by: cddbd v1.4PL0 Copyright (c) Steve Scherf et al.
# Submitted via: dBpowerAMP V4.0
#
DISCID=b80fd80e
DTITLE=Bo Diddley and Screamin'Jay Hawkins - Bo Diddley and Screamin'Jay Hawkins
DYEAR=1900
DGENRE=
TTITLE0=Furburger
TTITLE1=Cookie time
TTITLE2=The rose
TTITLE3=Tear drops
TTITLE4=Bushman tucker
TTITLE5=In my heart
TTITLE6=Rockin'away
TTITLE7=Bo Diddley Vamp
TTITLE8=Doctor Jeckyll
TTITLE9=Everleen
TTITLE10=I don't know where I've been
TTITLE11=You can't judge a book
TTITLE12=Roadrunner
TTITLE13=Mona
EXTD=Bo Diddley and Screamin'jay hawkins
EXTT0=
EXTT1=
EXTT2=
EXTT3=
EXTT4=
EXTT5=
EXTT6=
EXTT7=
EXTT8=
EXTT9=
EXTT10=
EXTT11=
EXTT12=
EXTT13=
PLAYORDER=
